<?xml version="1.0" encoding="utf-8"?>
<!-- Generator: Adobe Illustrator 29.4.0, SVG Export Plug-In . SVG Version: 9.03 Build 0)  -->
<svg version="1.0" id="Layer_1" xmlns="http://www.w3.org/2000/svg" xmlns:xlink="http://www.w3.org/1999/xlink" x="0px" y="0px"
	 viewBox="0 0 557.2 377.33" style="enable-background:new 0 0 557.2 377.33;" xml:space="preserve">
<style type="text/css">
	.st0{fill:#1750A3;}
	.st1{fill:#F9A01B;}
</style>
<g>
	<path class="st0" d="M135.85,241.02c-20.2-4.7-34.6-16.1-42.2-33.2c-4.7-10.9-7.3-22.9-7.3-40c0-17.5,2.2-29.8,6.9-40.4
		c10.6-22.9,32.8-35.3,65.2-35.3s54.6,11.6,65.2,34.9c5.1,10.9,7.3,23.3,7.3,40.8c0,12.9-1.2,22.9-3.9,31.6l36.1,73.3
		c13.2-10.6,23.7-23.8,31.2-39.4c8.4-18.9,13.1-40.8,13.1-65.5c0-24-4.7-45.9-12.7-64.1c-20.7-46.6-69.5-72.1-135.8-72.1
		c-67,0-115.7,25.8-136.9,73.5c-8,18.2-12.4,39.3-12.4,62.6c0,24,4.4,45.9,12.7,64.1c21.1,47,69.5,72.1,136.1,72.1
		c2.7,0,5.4-0.1,8.1-0.1L135.85,241.02z"/>
	<g>
		<path class="st1" d="M459.15,10.12h75l-158.6,320h-75.4L459.15,10.12z"/>
	</g>
	<g>
		<path class="st1" d="M472.55,10.12h75l-158.6,320h-75.4L472.55,10.12z"/>
	</g>
	<polygon class="st1" points="115.35,177.22 203.25,177.22 296.75,367.22 208.25,367.22 	"/>
</g>
</svg>
