<?xml version="1.0" encoding="utf-8"?>
<!-- Generator: Adobe Illustrator 29.4.0, SVG Export Plug-In . SVG Version: 9.03 Build 0)  -->
<svg version="1.0" id="Layer_1" xmlns="http://www.w3.org/2000/svg" xmlns:xlink="http://www.w3.org/1999/xlink" x="0px" y="0px"
	 viewBox="0 0 2677.8 676.5" style="enable-background:new 0 0 2677.8 676.5;" xml:space="preserve">
<style type="text/css">
	.st0{display:none;fill:#FFA000;}
	.st1{fill:#004CAC;}
	.st2{fill:#FFA000;}
</style>
<polygon class="st0" points="2501.9,493 2587.1,493 2677.8,676.5 2592,676.5 "/>
<g>
	<g>
		<path class="st1" d="M414.9,403c0,12.4-2.2,22.2-5.8,30.9c-13.1,28.4-46.2,42.6-90.3,42.6h-134v-257h136.5
			c38.9,0,66.2,12.4,76.8,36c4,8.4,5.8,16.7,5.8,27.3c0,10.2-1.8,18.6-5.1,26.2c-6.2,13.8-18.6,23.7-37.5,29.1
			c24,5.8,40,17.1,47.7,34.9C413.1,381.5,414.9,391.3,414.9,403z M255.8,322.2H290c19.3,0,32.4-4.4,37.1-15.3c1.8-4,2.5-8,2.5-13.8
			c0-4.7-0.7-8.7-2.5-12.7c-4.7-10.9-18.2-15.3-37.5-15.3h-33.9v57.1H255.8z M338.8,399.3c0-5.1-1.1-9.5-2.9-13.8
			c-5.5-12.7-20-17.1-40.8-17.1h-39.3V431h39.7c20.4,0,34.9-4.7,40.4-17.5C337.7,409.2,338.8,404.8,338.8,399.3z"/>
		<path class="st1" d="M629.6,427.4H508.1l-18.9,49.1h-75.7l104.1-257h102.3l104.1,257h-75.3L629.6,427.4z M610,375.3l-40.8-106.6
			h-0.7l-40.8,106.6H610z"/>
		<path class="st1" d="M724.3,431c-4.4-9.8-6.6-21.5-6.9-34.6h76.4c0,6.6,1.1,11.6,2.9,16.4c6.6,13.8,22.2,20.4,44.8,20.4
			c20.7,0,36.4-5.5,41.5-16c1.5-3.6,1.8-6.6,1.8-10.2s-0.4-6.6-1.8-9.5c-8.4-18.6-47.3-22.9-82.3-31.7
			c-35.7-8.4-60.8-21.1-72.1-45.9c-3.6-8-5.8-17.5-5.8-28.4c0-11.3,2.2-20.4,6.2-29.1c14.6-32.4,56.1-50.6,109.6-50.6
			c53.1,0,93.9,17.5,109.2,51.3c4.4,9.8,6.6,20.4,6.9,32.8h-74.3c-0.4-6.6-1.1-11.3-3.3-16c-5.8-12.7-19.3-18.9-40-18.9
			c-17.5,0-32.8,4.7-37.5,14.9c-1.1,2.5-1.5,5.1-1.5,8s0.4,5.5,1.5,8c6.9,16,39.7,20,75,28.4c36.4,8.7,69.9,20.4,82.6,49.1
			c3.6,8.4,5.8,18.6,5.8,30.6c0,12.4-2.2,22.9-6.6,32.8c-15.7,34.6-59.7,51.3-116.5,51.3C781,484.1,739.9,465.9,724.3,431z"/>
		<path class="st1" d="M989.2,219.5h71.3v257h-71.3V219.5z"/>
	</g>
	<g>
		<path class="st1" d="M1867.5,404.7c0,11.6-2.2,21.8-6.2,30.9c-14.2,30.9-48,48.8-107.7,48.8c-55.3,0-93.5-16.7-108.8-51.7
			c-6.2-14.6-9.1-30.9-9.1-52.4h69.2c0,12,1.8,21.5,5.5,29.5c6.2,14.2,19.3,21.8,40.8,21.8c18.6,0,33.9-5.8,39.7-19.3
			c2.2-4.4,2.9-9.1,2.9-14.6c0-5.8-1.1-11.3-2.9-15.3c-6.9-14.6-25.8-18.6-47.3-18.6h-12.7v-44h13.5c21.1,0,37.9-4.7,43.3-17.5
			c1.8-3.3,2.5-6.6,2.5-10.9c0-4.7-0.7-9.1-2.5-13.1c-5.1-11.3-17.5-17.1-36.8-17.1c-18.6,0-33.1,5.8-39.3,19.3
			c-2.2,4.7-3.3,9.5-3.3,15.7h-68.4c0-12.7,2.2-22.9,6.6-32.8c15.7-33.9,54.2-51.3,107.4-51.3c50.6,0,88.1,16,101.6,46.2
			c4,8.7,5.5,17.5,5.5,27.7c0,9.1-1.5,16.4-4.7,23.7c-6.6,15.3-20,26.2-41.9,32.4c25.5,5.1,40.4,17.1,48,33.9
			C1866.1,384.3,1867.5,394.2,1867.5,404.7z"/>
		<path class="st1" d="M2124.8,353.4c4.7,10.2,7.3,22.9,7.3,37.1c0,13.8-2.5,26.6-7.3,37.5c-16.7,36.8-59,56.4-110.3,56.4
			c-63,0-99.7-22.9-117.9-64.8c-8-18.6-12.4-41.5-12.4-68.8c0-28.4,4.7-53.1,13.8-73.5c18.9-42.2,57.9-65.2,114.7-65.2
			c37.5,0,69.2,10.9,89.5,31.7c12.7,12.7,21.1,28.8,24.4,48h-70.2c-1.8-6.2-4.7-10.9-9.1-15.3c-8.4-8.7-20.4-13.1-36-13.1
			c-24.4,0-41.1,10.6-49.9,30.9c-4.7,10.9-6.9,24.4-6.9,38.9c17.5-17.1,45.5-26.2,78.3-26.2C2076.1,307.2,2110.6,322.1,2124.8,353.4
			L2124.8,353.4z M2058.6,392.3c0-6.6-1.1-12-3.3-16.7c-6.9-14.6-22.9-21.5-43.7-21.5c-21.5,0-37.9,7.3-44.8,22.2
			c-2.2,5.1-2.9,10.2-2.9,16.4s0.7,12,2.9,16.7c6.6,14.6,23.3,22.2,44.4,22.2s37.1-7.3,43.7-21.8
			C2057.1,404.7,2058.6,398.9,2058.6,392.3z"/>
		<path class="st1" d="M2160.5,418.2c-8.4-18.9-12.7-41.1-12.7-69.9s4.4-51,12.7-69.9c18.6-42.2,59-66.2,117.6-66.2
			s99,24,117.6,66.2c8.4,18.9,12.7,41.1,12.7,69.9s-4.4,51-12.7,69.9c-18.6,42.2-59,66.2-117.6,66.2S2179.1,460.4,2160.5,418.2z
			 M2327.2,399.6c5.1-11.3,6.6-26.6,6.6-51.3c0-24.8-1.5-40-6.6-51.3c-8.4-17.8-24.8-27.3-49.1-27.3s-41.1,9.5-49.1,27.3
			c-5.1,11.3-6.6,26.6-6.6,51.3c0,24.8,1.5,40,6.6,51.3c8,17.8,24.8,27.3,49.1,27.3S2318.9,417.5,2327.2,399.6z"/>
	</g>
	<path class="st2" d="M2578.9,251.4c-11.7-23.9-39.2-37-76.5-37c-37.7,0-65.2,13.3-77.1,37.7c-4.5,9.3-7,20.2-7,32.1
		c0,12.3,2.5,23.5,7.2,32.8c11.9,24.1,39.2,37,76.7,37c37.1,0,64.2-12.7,76.5-36.2c4.7-9.7,7.4-20.9,7.4-33.6
		C2586.1,271.9,2583.4,260.7,2578.9,251.4z M2478,271.5c3.9-8.4,12.2-12.9,24.2-12.9s20.3,4.2,24.2,12.7c1.9,4,2.7,8.5,2.7,14.9
		c0,6.2-0.8,10.6-2.6,14.5c-3.8,8.5-12.1,13.1-24.2,13.1c-12,0-20.4-4.6-24.2-13c-1.8-4-2.7-8.4-2.7-14.6
		C2475.4,279.9,2476.2,275.4,2478,271.5z"/>
	<g>
		<path class="st1" d="M1231.1,421.9c-20.2-4.7-34.6-16.1-42.2-33.2c-4.7-10.9-7.3-22.9-7.3-40c0-17.5,2.2-29.8,6.9-40.4
			c10.6-22.9,32.8-35.3,65.2-35.3s54.6,11.6,65.2,34.9c5.1,10.9,7.3,23.3,7.3,40.8c0,12.9-1.2,22.9-3.9,31.6l36.1,73.3
			c13.2-10.6,23.7-23.8,31.2-39.4c8.4-18.9,13.1-40.8,13.1-65.5c0-24-4.7-45.9-12.7-64.1c-20.7-46.6-69.5-72.1-135.8-72.1
			c-67,0-115.7,25.8-136.9,73.5c-8,18.2-12.4,39.3-12.4,62.6c0,24,4.4,45.9,12.7,64.1c21.1,47,69.5,72.1,136.1,72.1
			c2.7,0,5.4-0.1,8.1-0.1L1231.1,421.9z"/>
		<g>
			<path class="st2" d="M1554.4,191h75l-158.6,320h-75.4L1554.4,191z"/>
		</g>
		<g>
			<path class="st2" d="M1567.8,191h75l-158.6,320h-75.4L1567.8,191z"/>
		</g>
		<polygon class="st2" points="1210.6,358.1 1298.5,358.1 1392,548.1 1303.5,548.1 		"/>
	</g>
</g>
</svg>
